<?xml version="1.0" encoding="utf-8"?>
<!-- Generator: Adobe Illustrator 27.4.0, SVG Export Plug-In . SVG Version: 6.00 Build 0)  -->
<svg version="1.1" xmlns="http://www.w3.org/2000/svg" xmlns:xlink="http://www.w3.org/1999/xlink" x="0px" y="0px"
	 viewBox="0 0 3000 3000" style="enable-background:new 0 0 3000 3000;" xml:space="preserve">
<style type="text/css">
	.st0{fill:#090A06;}
	.st1{fill:#090A05;}
	.st2{fill:#38575E;}
	.st3{fill:#0287C9;}
	.st4{fill:#0063A3;}
	.st5{fill:#F4F7F8;}
	.st6{fill:#A3C2DE;}
	.st7{fill:#38AAD9;}
	.st8{fill:#34A6D7;}
	.st9{fill:#090905;}
	.st10{fill:#0A0905;}
	.st11{fill:#0B0B06;}
	.st12{fill:#080906;}
	.st13{fill:#5C5E5B;}
	.st14{fill:#FDC800;}
	.st15{fill:#FFFFFF;}
	.st16{fill:#FBC900;}
	.st17{fill:#FBDF40;}
	.st18{fill:#E5A400;}
	.st19{fill:#FBDF3F;}
	.st20{fill:#5F5F5C;}
	.st21{fill:#3F0F0D;}
	.st22{fill:#FB6A57;}
	.st23{fill:#3F100D;}
	.st24{fill:#E19F01;}
	.st25{fill:#D54D37;}
	.st26{fill:#FDFDFD;}
	.st27{fill:#0C0D07;}
</style>
<g id="Layer_1">
</g>
<g id="Layer_2">
	<g>
		<path class="st0" d="M2007.62,721.4c-1.1,0.15-2.19,0.3-3.29,0.35c-4.88-17.44-9.72-34.89-23.97-47.84
			c-3.24-2.94-6.28-7.62-1.35-12.31l0.1-0.05C1993.37,679.24,2011.76,694.94,2007.62,721.4z"/>
		<path class="st1" d="M2087.23,2523.59c-28.02-19.4-10.78-6.47-30.18-19.4c-6.54-1.7-19.17-13.38-25.87-15.09
			c-3.49-0.89,13.93-7.29,17.03-9.13c113.73-67.19,219.47-138.69,305.48-237.24c2.46-2.81,7.11-1.02,7.05,2.71
			c-0.18,12.57-0.79,24.73,13.13,30.14c16.05,6.28,30.65-1.15,43.21-11.96c5.03-4.34,10.57-8.07,15.55-12.41
			c30.73-26.9,54.61-59.61,78.09-92.63c0.1-0.15,0.2-0.3,0.28-0.45l29.55-55.83c0.05-0.1,0.11-0.2,0.17-0.29
			c3.21-5.04,6.43-10.03,9.69-15.06c0.19-0.3,0.34-0.62,0.45-0.95c3.09-9.55,6.17-19.15,9.26-28.7c1.82-5.13,3.63-10.21,5.45-15.29
			c0.25-0.69,0.7-1.29,1.27-1.76c9.36-7.67,11.55-18.87,14.06-29.85c3.49-15.35,5.38-31.05,8.37-46.5
			c1.35-7.03,1.1-15.5,10.96-17.34c29.25-5.48,38.87-28.66,46.05-52.93c16.94-57.56,5.58-113.63-13.75-167.85
			c-31.6-88.66-86.51-162.27-157.63-222.72c-22.7-19.24-36.01-38.68-34.44-67.85c0.03-0.57-0.08-1.15-0.29-1.68
			c-1.66-4.24-1.62-8.96-3.6-13.09c-0.27-0.57-0.45-1.19-0.45-1.83c0.05-30.41,0.05-60.77,0.09-91.18c0-1.16-0.51-2.27-1.39-3.03
			c-2.86-2.49-3.57-5.77-2.69-9.56c0.09-0.37,0.13-0.76,0.11-1.15c-5.81-115.35-36.83-224.35-86.78-327.69
			c-74.67-154.38-191.32-262.45-352.47-319.71c-3.88-1.38-7.1,3.28-4.44,6.42c11.01,12.96,21.17,26.33,19.48,45.35
			c-0.17,1.95-1.71,3.57-3.66,3.66c-0.01,0-0.02,0-0.03,0c0.05,0.3,0.15,0.65,0.25,0.95c11.81,13.36,28.31,18.79,43.71,26.06
			c59.16,28.31,111.33,65.73,153.1,116.82c12.73,15.57,25.02,31.53,38,46.95c0.05,0.06,0.1,0.13,0.15,0.19
			c48.65,65.26,80.82,138.53,105.03,215.84c33.59,107.2,42.66,217.78,43.81,329.17c0.3,32.84,10.32,55.02,37.53,75.25
			c86.61,64.39,139.14,152.3,164.06,256.65c5.04,21.18,9.87,43.24,3.92,65.98c-0.85,3.25-5.07,4.13-7.13,1.48
			c-11.19-14.41-20.06-29.53-30.04-43.84c-7.13-10.22-13.11-21.23-21.58-30.4c-4.93-5.38-10.71-12.81-18.64-8.52
			c-7.48,3.99-2.44,11.81-0.95,17.99c23.47,95.49,18.99,189.23-19.14,280.28c-18.3,43.84-43.13,83.85-73.85,120.29
			c-2.49,2.96-7.32,1.05-7.14-2.81c1.38-29.63,4.67-58.57,10.23-87.33c2.79-14.5,5.63-34.24-11.31-39.12
			c-13.31-3.89-16.7,15.45-22.13,25.81c-44.55,84.97-104.36,157.18-179.36,217.04c-66.23,52.93-137.5,98.43-208.56,144.32
			c-29.8,19.29-36.18,34.09-27.66,68.82c5.23,21.23,16.05,39.97,24.97,59.6c7.22,14.19,21.36,23.35,27.83,38.07
			c0.19,0.43,0.31,0.9,0.35,1.37c2.27,25.1-13.48,42.75-25.75,61.88c-0.09,0.14-0.18,0.27-0.29,0.4
			c-12.84,15.72-28.51,28.7-41.5,44.23c-0.07,0.09-0.15,0.18-0.24,0.26c-17.1,17.32-40.97,24.86-59.01,40.72
			c-0.28,0.24-0.52,0.53-0.72,0.84c-6.86,10.46-19.62,9.67-29,15.12c-17.17,10.1-38.41,16.84-42.44,40.02
			c-0.4,2.28,1.26,4.44,3.56,4.68c20,2.16,37.82-7.5,56.03-12.91c78.44-23.27,139.49-68.13,172.53-145.52
			c17.8-41.74,29.13-83.07-5.95-121.13c-2.91-3.16,0.48-8.11,4.45-6.48c10.24,4.22,17.91,9.71,24.97,16.33
			c52.03,48.89,63.64,132.81,27.81,194.51c-36.38,62.44-90.55,102.96-157.13,127.23c-105.15,38.37-214.34,40.22-323.73,28.06
			c-123.79-13.75-238.96-53.07-341.03-126.58c-15.1-9.87-29.2-21.08-43.36-32.19c-39.19-32.22-74.69-68.65-115.38-99.35
			c-2.93-2.21-1.6-6.88,2.06-7.23c27.93-2.69,54.86,3.96,81.79,0.66c1.81-0.22,3.23-1.7,3.47-3.5c1.68-12.78,2.81-13.77,18.26-22.66
			c0.91-0.52,1.61-1.38,1.9-2.39c3.03-10.62,2.78-21.2-1.08-31.69c-0.15-0.42-0.38-0.81-0.65-1.15c-1.06-1.34-2.12-2.69-3.16-4.06
			c-0.56-0.74-0.85-1.66-0.82-2.59c0.35-10.38,0.83-20.77,0.5-31.05c-0.45-13.66-7.18-23.47-20.78-27.11
			c-20.31-5.4-40.61-10.65-60.97-15.85c-0.25-0.06-0.5-0.16-0.74-0.27c-6.37-3.12-12.93-5.9-19.73-8.1c-0.75-0.25-1.49-0.5-2.24-0.7
			c-4.29-9.12-14.25-10.02-22.43-12.86c-43.96-15.1-87.81-30.45-129.67-50.43c-123.34-58.86-236.57-130.42-310.58-250.82
			c-11.91-19.34-19.69-40.02-27.41-61.05c-3.19-8.67-7.67-18.54-17.79-18.59c-12.11-0.15-11.81,12.31-13.75,20.38
			c-5.03,20.98-9.47,42.21-17.64,62.15c-5.48,13.26-6.28,34.59-22.48,35.68c-18.39,1.25-25.02-19.69-31.84-33.99
			c-37.83-79.49-44.55-162.02-20.53-246.79c4.54-16,9.27-31.85,10.81-48.44c0.65-7.33,2.24-15.7-6.43-19.54
			c-6.98-3.14-12.91,1.4-17.89,5.73c-13.8,11.91-26.81,24.72-38.02,39.17c-16.48,21.2-37.07,38.31-56.52,61.42
			c-2.42,2.87-7.1,1.23-7.15-2.52c-0.96-66.69,11.71-125.52,35.76-181.79c22.38-52.38,52.63-100.97,98.48-135.2
			c35.63-26.66,52.68-55.17,36.93-98.77c-1.64-4.58-1.54-9.77-1.74-14.75c-7.28-161.42,23.72-313.27,112.13-450.86
			c81.28-122.45,182.2-223.11,317.06-286.21c22.58-10.57,43.71-23.82,65.04-36.58c8.82-5.28,24.17-10.37,19.83-21.83
			c-4.29-11.41-19.44-4.54-29.45-3.29c-19.73,2.44-39.47,6.03-59.21,7.13c-29.55,1.69-59.06,10.32-88.86,2.44
			c-12.56-3.29-28.86-3.99-31.2-19.98c-2.09-14.5,10.27-23.57,21.13-31.45c22.28-16.15,46.7-28.11,72.41-38.07
			c36.23-14.05,74.6-14.4,112.13-20.33c7.53-1.2,18.89-1.05,19.04-11.66c0.15-9.87-10.37-11.56-18.14-14.15
			c-37.73-12.66-75.95-23.82-112.78-39.17c-26.86-11.21-52.93-23.97-75.05-43.36c-17.89-15.7-34.29-32.79-28.41-59.45
			c5.73-26.06,26.61-36.53,49.39-44.05c9.47-3.14,19.04-6.03,28.76-8.02c82.83-17.04,164.46-20.73,241.7,22.82
			c13.01,7.38,26.11,14.4,38.92,22.13c5.53,3.39,12.36,8.22,18.24,3.19c7.38-6.38,1.69-14-1.84-20.13
			c-9.52-16.6-21.38-31.35-33.99-45.85c-38.67-44.35-88.41-74.9-134.56-109.84c-56.76-43.01-53.57-79.19,10.86-109.79
			c78.39-37.18,159.62-48.59,244.3-24.47c55.62,17.09,105.25,44.05,146.02,86.51c9.08,9.51,16.44,22.08,31.07,24.76
			c1.15,0.21,2.34-0.17,3.25-0.9c9.08-7.33,5.67-16.8,2.22-25.5c-6.73-16.99-15.35-33.09-25.82-48.09
			c-9.77-13.9-15.6-29.2-17.59-45.95c-3.39-28.31,10.37-40.97,37.88-35.08c6.48,1.4,12.71,3.74,18.89,5.98
			c12.21,4.98,24.72,8.87,35.93,16.5c94.89,64.29,142.08,155.94,156.24,267.62c8.61,68.07,4.99,135.1-10.28,201.73
			c-0.02,0.11-0.04,0.21-0.06,0.32c-4.36,34.72-17.59,66.97-27.54,100.11c-2.04,6.78-6.98,15.35,1.69,19.93
			c7.52,3.99,14.1-2.19,19.14-7.87c9.92-11.21,18.79-23.57,24.42-37.18c11.61-27.86,30.95-31.4,57.96-25.42
			c43.88,9.76,87.17,21.33,130.5,33.3c0.9,0.25,1.86,0.19,2.71-0.19c6.98-3.12,13.73-5.37,16.51,4.72c0.29,1.05,1.01,1.92,1.97,2.43
			c20.75,11.1,40.49,25.33,65.11,25.09c2.64-0.03,4.52-2.61,3.79-5.16c-4.49-15.77-9.67-31.2-22.59-42.95
			c-2.34-2.12-4.58-5.16-3.78-8.44c0.53-2.18-0.65-4.36-2.84-4.84c-19.88-4.34-38.04-15.46-58.57-16.42
			c-13.03-0.63-22.88-5.13-31.18-14.23c-0.53-0.59-1.23-1.02-2-1.21c-34.34-8.49-68.55-17.39-103.92-21.04
			c-12.41-1.3-23.22-3.64-16.69-24.62c8.78-28.32,15.39-58.38,12.5-89.03c-0.03-0.28-0.02-0.57,0.02-0.85
			c3.76-26.4,3.51-52.84,0.09-79.24c-0.03-0.25-0.04-0.5-0.02-0.74c2.11-26.8-7.68-51.94-10.51-78.06
			c-0.03-0.24-0.07-0.48-0.14-0.71c-18.08-59.85-48.35-113.32-85.75-163.01c-0.08-0.1-0.15-0.2-0.24-0.29
			c-38.89-43.79-82.71-80.76-139.66-98.93c-64.04-20.38-104.44,2.45-115.1,66.12c-0.46,2.76-3.51,4.2-5.96,2.84
			c-55.16-30.64-114.97-38.68-176.51-37.76c-71.41,1.15-139.79,14.8-199.79,55.87c-69.72,47.74-71.76,113.23-6.48,167.75
			c11.22,9.4,22.64,18.53,37,30.1c3.01,2.42,1.22,7.28-2.64,7.17c-47.16-1.32-88.79,0.88-129.75,10.12
			c-44.63,10.05-88.37,21.99-114.94,64.39c-0.08,0.13-0.16,0.27-0.24,0.41c-19.28,37.64-6.28,70.66,15.11,102.2
			c25.68,37.99,64.31,57.8,105.86,76.14c3.24,1.43,3.18,6.06-0.09,7.41c-2.12,0.88-4.12,1.72-6.1,2.61
			c-32.24,14.5-65.83,26.96-90.8,53.52c-42.41,45.05-28.56,96.18,30.5,113.68c3.09,0.89,6.23,1.7,9.98,2.66
			c3.57,0.91,4.15,5.73,0.89,7.46c-51.15,27.29-90.08,64.88-128.8,102.74c-0.51,0.5-1.15,0.84-1.85,1.02
			c-7.38,1.86-13.49,5.93-18.74,11.47c-0.08,0.09-0.17,0.18-0.24,0.28c-12.91,15.56-25.24,31.7-38.21,47.25
			c-2.34,2.54-4.78,4.98-7.08,7.57c-29.15,33.14-52.38,70.47-75.25,108.04c-3.2,5.3-6.45,12.86-6.71,17.86
			c-0.02,0.42-0.07,0.83-0.23,1.22c-0.93,2.42-2.86,5.12-4.06,7.62c-0.51,1.07-1.46,1.87-2.61,2.17c-5.79,1.52-7.3,4.34-7.98,8.92
			c-0.06,0.41-0.18,0.83-0.36,1.2c-2.23,4.61-2.1,4.05-4.12,8.18c-0.38,0.78-1.03,1.4-1.79,1.83
			c-11.61,6.59-11.66,27.71-16.19,38.61c-8.22,19.93-14.5,40.62-20.93,61.2c-29.75,95.68-49.24,192.86-39.52,293.88
			c2.79,28.31,17.34,56.02-10.57,82.78c-97.47,93.49-153.22,207.17-157.91,343.72c-0.01,0.3,0.01,0.6,0.06,0.9
			c2.59,15,7.11,29.57,9.35,44.67c0.03,0.19,0.07,0.39,0.13,0.57c5.6,18.41,15.41,33.73,35.25,37.94
			c25.08,5.32,39.27-11.64,54.77-27.29c2.57-2.59,7-0.7,6.89,2.95c-1.61,54.7,1.32,107.47,22.42,157.75
			c2.32,5.53,4.11,11.31,6.27,16.9c0.04,0.1,0.08,0.19,0.12,0.29c11.28,23.83,20.31,48.68,40.5,67.44
			c42.66,39.72,70.77,35.98,100.02-14.35c1.21-2.06,2.05-4.39,4.5-6.09c1.66-1.15,3.95-0.84,5.29,0.68
			c25.43,28.83,47.58,61.62,77.86,86.96c0.1,0.09,0.21,0.17,0.32,0.25c3.49,2.5,7.15,4.74,10.69,7.19c0.11,0.08,0.22,0.16,0.32,0.24
			c2.46,1.98,4.77,4.11,7.09,6.23c0.05,0.05,0.1,0.1,0.15,0.15c7.46,7.74,15.89,14.66,21.51,24.09c4.07,6.49,1.22,2.02,6.76,7.19
			c0.34,0.31,0.73,0.58,1.15,0.76l18.71,8.21c0.36,0.16,0.69,0.37,0.98,0.62c20.95,18.13,45.03,32.26,67.92,47.83
			c0.17,0.12,0.36,0.22,0.55,0.31c3.98,1.83,7.91,3.7,11.61,5.9c0.11,0.06,0.21,0.13,0.31,0.2c19.4,13.85,40.92,23.89,62.04,34.53
			c6.13,2.79,12.11,5.93,18.04,9.07c10.17,4.86,20.19,10.02,30.36,14.78c0.09,0.04,0.19,0.09,0.29,0.12
			c5.44,2.12,10.96,4.1,16.2,6.67c17.54,7.38,34.98,15.3,53.37,20.23c10.27,2.74,20.48,11.46,31.7,4.88
			c0.15,0.4,0.35,0.85,0.55,1.25c13.7,10.32,30.25,12.81,46.15,17.04c19.93,5.33,40.12,9.57,59.55,16.65
			c10.96,3.99,16.15,12.36,13.66,23.22c-2.79,11.96-13.06,7.13-20.63,6.08c-10.61-1.44-21.23-2.74-31.99-2.49
			c-13.15,0.36-25.55-1.23-39.41-0.33c-2.77,1.35-3.33,1.63-6.1,2.98c-4.13,20.54-6.39,41.08-3.43,61.62
			c0.19,1.3,1.02,2.42,2.2,3.01c23.28,11.72,44.5,28.89,63.43,52.43c11.83,14.76,27.47,26.15,43.77,36.1
			c0.09,0.06,0.18,0.12,0.27,0.18c68.88,50.65,136.72,102.09,217.25,134.81c77.64,31.55,157.83,52.63,240.36,58.26
			c69.27,4.73,139.34,4.73,209.11-7.58c77.69-13.75,149.71-38.62,209.46-90.6c82.93-72.21,102.96-166.95,54.77-255.36
			c-5.99-11-15.26-19.16-23.88-30.31"/>
		<path class="st1" d="M2007.62,721.4c-1.1,0.15-2.19,0.3-3.29,0.35c-4.88-17.44-9.72-34.89-23.97-47.84
			c-3.24-2.94-6.28-7.62-1.35-12.31l0.1-0.05C1993.37,679.24,2011.76,694.94,2007.62,721.4z"/>
		<path class="st0" d="M1979.02,661.62c-22.34,4.66-40.45-16.69-61.3-11.99c-20.73,4.67-28.55-4.49-34.54-20.58
			C1915.99,637.36,1948.59,646.3,1979.02,661.62z"/>
		<path class="st2" d="M1773.86,493.67c0.02-26.69,0.05-53.38,0.07-80.08C1781.86,440.29,1781.2,466.98,1773.86,493.67z"/>
		<path class="st3" d="M678.94,1086.27c73.51-116.29,166.52-212,290.73-274.4c39.73-19.96,77.76-42.62,118.89-67
			c-51.71,5.59-99.25,10.96-146.84,15.76c-20.99,2.12-40.83-2.81-60.37-10.77c-18.15-7.4-18.99-18.38-9.99-33.15
			c12.66-20.79,33.21-32.54,53.49-43.28c40.58-21.51,83.94-34.35,130.37-35.94c14.51-0.5,28.93-3.75,44.1-9.79
			c-25.42-8.25-50.97-16.13-76.25-24.81c-46.93-16.12-94.45-31.36-132.61-65.2c-17.48-15.5-34.84-31.85-32.43-58.3
			c2.05-22.5,14.52-38.05,34.75-47.82c34.01-16.42,70.45-23.77,107.5-27.67c88.1-9.29,169.42,8.44,244.47,68.72
			c-4.5-17.86-11.36-27.65-18.84-36.83c-29.39-36.06-60.66-70.1-99.97-96c-22.1-14.56-43.27-30.56-64.44-46.47
			c-7.88-5.93-16.03-12.45-21.49-20.46c-17.02-24.94-26.77-54.12,11.54-78.49c68.86-43.81,144.59-60.18,225.36-52.56
			c18.61,1.76,38.08,2.24,55.29,11.77c10.99,9.16,22.46,18.07-2.08,24.62c-6.4,1.71-12.33,6.34-11.85,14.16
			c0.49,7.96,7.89,9.96,13.71,12.79c54.83,26.68,104.78,62.14,160.43,88.5c4.43-8.46,0.41-21.96,13.28-26.6
			c9.32-3.09,4.61-9.89,2.55-14.11c-8.33-17.02-16.1-34.64-26.92-50.03c-11.37-16.18-17.71-33.55-20.9-52.45
			c-5.55-32.93,13.9-50.71,46.47-42.65c6.29,1.56,12.3,4.21,18.44,6.36c64.77,38.93,104.36,97.49,130.14,166.88
			c33.64,90.57,57.86,183.07,61.42,280.36c0.58,15.77-10.91,30.13-3.27,45.94c-4.52,40.37-20.04,77.7-35.13,122.35
			c26.76-21.12,37.94-45.63,49.86-68.94c7.06-13.82,13.19-18.1,29.94-15.11c54.41,9.69,108.03,21.61,159.88,40.92
			c5.89-1.85,10.43,0.96,14.8,4.32c24.87,10.18,49.75,20.36,74.62,30.54c14.89,7.15,29.79,14.3,44.68,21.45
			c2.12,13.04,11.09,21.63,19.42,30.84c5.66,6.26,12.47,14.01-3.38,16.49c-43.99-18.83-89.04-30.25-137.23-19.92
			c-1.36-0.81-2.49-1.87-3.24-3.22c-1.65-2.97-0.92-9.94-6.03-7.43c-4.98,2.44,1.84,2.44,2.65,4.08c0.6,1.2,2.31,1.96,3.3,3.24
			c-5.95,18.88-21.69,25.62-38.45,31.08c-4.89-3.53-4.77-7.76-1.71-12.4c-7.67,11.14-7.67,11.14,4.56,13.92
			c16.67,6.79,33.64,5.41,50.91,2.89c32.48-4.75,63.69-0.89,92.62,15.75c7.39,12.32-2.55,11.93-9.73,12.55
			c-8.04,0.69-15.26-4.62-23.61-4.48c16.12,24.41,14.8,32.59-9.71,57.59c9.35,7.43,17.66,7.3,25.63-1.61
			c2.2-2.46,3.95-5.29,6.18-7.72c33.22-36.25,50.7-36.3,78.51,5.4c9.27,13.91,16.66,12.81,28.23,9.74
			c8.4,1.21,12.15,10.72,21.27,12.01c3.23-16.34-12.1-28.71-8.87-44.6c4.55-9.31,12.36-6.52,14.76-0.67
			c9.72,23.72,23.99,13.93,38.39,6.77c2.94-1.46,6.02-2.25,9.29-1.03c12,14.53,23.99,29.07,35.99,43.6
			c-2.99,18.26-19.7,4.57-27.07,12.62c-1.52,0.43-1.1,2.94,0.45,2.77c34.21-3.82,39.85,28.53,56.66,45.91
			c9,9.3,3.94,20.07-9.27,24.75c-6.47,2.29-17.37,1.87-14.91,12.23c2.07,8.74,10.98,3.67,17.16,3.53
			c31.9-0.73,50.49,28.46,37.3,61.22c-5.97,14.82-10.78,29.06-11.3,45.18c-0.74,22.94-17.56,36.99-32.71,50.7
			c-10.44,9.44-18.09-0.66-24.04-8.72c-12.01-16.3-8.06-38.1-19.28-55.44c-4.95-7.65,9.21-14.06,12.54-23.24
			c-16.27,2.65-29.41,11.51-43.95,16.59c-15.26-0.47-22.09-12.35-30.32-22.35c-4.14-6.74-9.52-12.26-16.31-16.39
			c-8.1-7.68-20.84-11.31-22.07-25.04c15.58-14.49,2.87-26.57-3.5-39.01c-6.77-13.22-17.18-13.75-29.25-7.67
			c-2.19,1.11-4.81,2.2-7.14,1.88c-34.04-4.79-67.95-6.58-101.85,1.62c-4.57,1.1-9.74-1.77-13.71-4.91
			c-5.33-4.21-10.61-9.35-8.07-16.67c3.13-8.98,10.24-5.86,16.57-3.59c5.99,2.15,11.81,6.77,20.71-0.43
			c-23.6-4.45-33.65-16.66-21.02-42.74c-25.02,2.3-47.48,20-68.78-0.63c2.86,15.31,14.28,11.96,23.09,13.31
			c8.73,1.34,16.16,4.3,18.82,13.57c2.99,10.46-4.64,14.7-11.32,18.53c15.44,15.34,31.7,29.89,49.66,42.43
			c-9.09,14.75-25.38,17.21-39.56,23.29c-1.68-0.11-3.65-0.27-4.59-1.47c-5.79-7.37-13.4-15.86-22.24-11.82
			c-10.38,4.74-2.15,16.09-2.6,24.47c-0.31,5.69,2.04,11.39,1.27,17.27c-2.74,8.98-7.67,15.34-18.09,15.07
			c-9.48-7.01-19.78-15.11-30.94-5.2c-9.47,8.4-9.5,20.07-4.65,32.51c15.61-2.21,11.98-30.7,32.83-22.01
			c4.32,9.84-1.26,17.56-5.33,25.67c-40.02,79.74-54.46,162.85-33.44,250.8c2.02,8.44,7.97,18.65-0.08,25.74
			c-8.17,7.2-17.15-0.27-25.37-3.55c-59.38-23.69-113.15-20.97-163.41,25.08c-33.36,30.57-63.56,62.81-88.33,100.42
			c-5.47,8.31-10.61,16.89-16.71,24.74c-5.81,7.48-10.67,21.13-21.69,16.26c-9.61-4.26-2.95-16.44-1.04-24.89
			c22.8-100.51,13.56-198.16-28.82-291.81c-24.85-54.91-59.12-103.6-108.75-139.83c-107.25-78.31-242.01-60.53-318.33,47.95
			c-97.19,138.14-108.24,287-38.52,440.79c21.15,46.65,60.4,78.26,100.87,107.82c6.52,4.77,16.58,8.58,14.71,18
			c-1.98,9.98-12.98,8.36-20.8,9.74c-78.09,13.81-119.97,52.46-124.58,122.76c-3.11,47.42,13.86,91.01,41.04,130.45
			c27.9,40.49,68.67,66.88,104.79,98.4c11.07,9.66,24.77,17.34,27.08,34.02c5.68,5.63-16.62,3.42-3.15,11.93
			c7.07,4.47,10.86,12.61,13.95,20.26c30.79,76.34,73.77,146.54,110.31,219.98c7.03,14.13,13.38,28.56,18.52,43.44
			c8.11,23.52,3.43,31.49-21.77,30.01c-47.46-2.8-93.94-13.55-136.99-33.18c-65.57-29.9-129.8-63.24-189.51-103.75
			c-88.27-59.88-153.24-140.68-200.9-235.71c-9.56-19.05-19.33-37.96-30.71-55.17c-3.02,25.27,3.49,50.57,1.69,76.09
			c-0.77,10.99,4.13,26.95-9.06,30.6c-12.46,3.44-18.57-11.75-24.92-20.83c-24.96-35.67-38.38-76.78-54.82-116.63
			c-27.17-65.86-19.75-131.24-3.77-197.58c5.86-24.33,2.14-26.88-21.01-18.67c-12.49,4.43-24.69,9.71-37.62,12.81
			c-4.79,1.15-10.37,2.54-13.73-2.29c-3.47-4.98-0.13-9.98,3.33-13.16c27.35-25.15,33.85-62.08,52.15-92.42
			c20.42-33.85,7.97-71.48,3.33-107.14c-16.19-124.23-21.11-247.69,17.62-369.18c8.06-25.27,15.78-50.85,26.68-74.88
			C687.89,1091.21,681.02,1090.82,678.94,1086.27z"/>
		<path class="st4" d="M1839.28,2551.01c-65.68,8.18-128.62-2.99-189.37-27.69c-120.77-49.11-212.83-134.82-295.31-232.75
			c-45.33-53.81-85.27-112-133.07-163.75c-11.29-12.22-19.44-29.62-39.82-30.3c-8.13,9.74-10.87-11.31-15.62-6.9
			c49.3,110.66,112.63,212.28,161.13,327.43c-141.49-5.59-250.52-75.45-358.24-145.65c-111.38-72.58-171.24-187.5-232.81-307.54
			c0,49.96,0,91.86,0,136.02c-22.1-23.08-36.65-48.39-47.9-75.8c-22.57-54.99-48.63-109.64-43.63-171
			c2.72-33.42,10.45-66.73,19.04-99.27c5.68-21.51-1.66-23.63-18.53-18.18c-20.7,6.69-41.14,14.17-65.56,22.64
			c10.38-14.83,26.52-19.43,30.15-33.57c6.92-26.94,23.47-48.99,34.98-73.55c7.02-14.97,10.71-31.45,8.96-48.29
			c-4.94-47.53-9.67-95.09-15.59-142.51c-9.31-74.52-3.5-148.36,9.42-221.77c9.9-56.23,34.25-108.33,49.95-163.06
			c-10.32-2.12-7,16.25-18.54,10.75c-15.27,17.74-25.78,38.56-35.82,59.29c-68.12,140.65-96.58,287.9-70.46,443.51
			c2.7,16.08-0.44,25.85-13.77,35.73c-75.27,55.79-124.39,129.77-148.1,220.3c-12.7,48.52-20.28,97.76-14.78,151.73
			c45.89-41.72,77.8-92.32,128.12-132.21c-5.57,54.29-25.66,98.93-27.36,147.46c-2.41,68.86,10.36,133.33,46.41,192.45
			c6.84,11.22,15.09,26.45,28.07,25.38c11.78-0.97,15.42-17.73,20.47-28.99c14.43-32.21,20.55-67.01,29.79-101.06
			c9.02,2.9,10.71,9.79,12.29,15.89c13.24,51.37,44.82,92.19,78,131.25c72.9,85.8,167.32,141.92,267.99,188.64
			c49.53,22.99,101.44,39.84,152.74,58.24c-0.01,0-0.46,0.54-0.46,0.54c2.59,3.93,7.16,3.37,10.87,4.74
			c41.1,15.15,92.9,18.05,92.29,80.86c-0.36,13.06-0.73,26.12-1.09,39.18c-0.16,10.08,7.95,13.92,14.57,18.28
			c39.13,25.8,77.63,52.81,119.05,74.69c26.6,14.05,51.84,32.21,82.89,36.42c61.12-0.1,119.19-13.61,175.77-36.7
			c37.56-15.33,74.7-31.51,110.89-49.61c37.7-18.85,74.86-39.37,106.94-67.06C1867.21,2575.41,1864.65,2560.47,1839.28,2551.01z"/>
		<path class="st3" d="M2180.6,1091.52c13.14-15.33,35.21-13.53,49.91-26.02c2.79-2.37,6.33-1.26,8.45,1.95
			c2.46,3.73,3.64,9.6,0.29,11.38c-21.71,11.59-19.41,23.82-6.98,42.63c4.33,6.54-0.28,21.26,7.31,31.67
			c7.22,9.91,9.57,14.68,20.81,1.86c15.82-18.05,29.1-34.73,24.88-60.59c-0.93-5.69,2.33-14.02,6.54-18.25
			c15.79-15.86,5.49-33.78,2.49-49.09c-2.68-13.7-19.74-19.08-32.21-12.02c-14.22,8.05-20.76,2.55-24.35-8.89
			c-3.68-11.73,2.6-18.82,15.37-19.64c6.21-0.4,14.01,1.99,17.04-6.46c3.66-10.2-5.26-12.01-10.98-16.28
			c-3.18-2.38-5.81-6.07-7.56-9.71c-6.37-13.29-6.86-33.79-31.69-21.66c-3.04,1.48-11.72-7.68-17.18-12.58
			c-2.1-1.88-4.04-6.05-3.39-8.45c1.43-5.24,6.41-4.4,10.18-2.78c11.45,4.92,21.85-0.02,32.52-2.84
			c59.53,75.45,93.92,162.75,118.92,254.29c26.61,97.43,34.06,197.32,34.57,297.76c0.15,29.15,7.12,48.57,32.95,68.02
			c97.44,73.37,154.94,172.45,173.37,293.72c3.06,20.15-1.55,39.47-2.28,63.56c-32.67-34.7-50.24-76.16-82.95-110.47
			c50.72,153.59,4.07,337.07-109.79,447.34c-5.58-52.74,17.91-103.53,9.25-161.24c-15.89,29-28.23,53.19-42.09,76.49
			c-60.3,101.39-146.79,176.6-243.69,240.82c-44.12,29.24-85.95,62.04-132.9,86.96c-18.08,9.6-17.71,26.32-16.28,43.12
			c2.29,26.98,19.94,48.51,26.78,73.91c-13.11,8.58-28.65,1.93-42.74,6.93c-7.94,2.82-10.79-5.34-9.65-12.8
			c1.28-8.38-0.1-16.3-2.87-24.15c-2.54-7.18-5.91-8.1-12.86-4.04c-26.05,15.24-28.62,14.08-43.68-15.94
			c0.25-9.62,7.75-14.1,13.92-19.42c38.26-33.01,62.88-74.09,73.24-123.64c6.98-30.84,9.28-62.27,12.27-93.6
			c0.53-163.85,56.27-308.46,152.84-438.84c12.55-15.41,27.7-18.3,46.62-12.31c29.95,9.49,60.11,18.8,91.49,22.49
			c33.96,3.99,49.77-8.03,52.63-39.05c2.5-24.23-5.31-45.92-17.46-66.13c-25.36-42.2-56.21-79.84-94.8-110.77
			c-10.15-7.32-18.14-17-27.63-25.04c-24.13-20.45-23.57-21.45-4.52-44.82c52.26-64.12,71.21-138.32,67.48-220.23
			c-3.53-77.54-21.36-150.54-58.34-218.99C2195.43,1124.05,2179.18,1111.95,2180.6,1091.52z"/>
		<path class="st5" d="M1828.62,2822.79c60.26-13.83,119.27-30.15,167.56-72.25c40.15-35.01,63.68-79.48,75.49-130.34
			c9.37-40.35-10.63-67.92-50.68-90.25c31.68-4.89,51.59,4.01,68.65,20.48c72.58,70.07,71.01,173.17-2.98,251.8
			c-57.87,61.5-131.21,90.85-212.18,106.9c-70.53,13.98-141.77,14.31-212.29,8.54c-134.12-10.96-259.84-49.91-370.54-129.75
			c-1.99-1.44-3.62-3.39-5.42-5.1c13.06-15.62,23.22-1.77,33.11,4.16c12.48,7.48,23.72,17.06,43.49,17.01
			c-13.28-17.48-27.42-24.67-45.32-25.36c-8.85-0.34-17.27-2.78-18.24-12.94c-0.95-9.93,7.75-11.16,15.07-12.91
			c25.38-4.14,50.33,8.17,75.73,1.71c10.29-1.63,19.81,1.4,28.89,5.52c82.27,37.41,168.45,59.52,258.53,66.54
			c31.75-0.7,63.63,3.48,95.18-2.98C1791.32,2823.51,1809.84,2813.2,1828.62,2822.79z"/>
		<path class="st3" d="M1897.63,2530.04c7.98,2.63,9.71,10.83,14.55,16.25c5.25,5.87,9.93,10.97,17.54,1.27
			c6.02-7.67,15.63-23.72,23.55-13.52c6.57,8.45,18.09,23.8,8.84,39.44c-1.67,2.82-3.92,5.47,0.69,10.1
			c13.56-13.23,29.46-5.46,45.1-3.55c10.4,11.13,22.15,21.12,29.47,34.86c-5.21,5.25-12.1,5.26-18.58,5.04
			c-13.06-0.43-23.53-2.24-31.33,14.76c-6.44,14.04-22.99,13.76-37.86,3.08c-1.77,5.85,0.76,15.57-1.96,24.49
			c2.22-4.7,4.46-10.71,9.97-10.2c14.43,1.33,29.25,0.13,43.07,1.58c20.84,2.18,9.99,19.29,7.56,31.21
			c-13.79,14.77-27.59,29.54-41.38,44.31c-16.77-7.38-0.9-17.55-5.56-26.67c-41.85,37.57-90.87,59.47-154.43,37.01
			c10.98,16.47,5.04,35.79,21.68,46.58c2.99,1.94-1.17,5.7-3.31,8.16c-18.8,10.73-40.14,10.26-60.34,11.47
			c-100.24,6.01-198.07-5.71-291.53-44.81c-8.98-3.76-19.37-5.79-23.05-16.87c30.25-4.08,60.48-7.34,90.66-13.01
			c58.58-11.01,110.67-37.61,164.23-60.76c43.22-18.67,83.62-42.91,122.24-69.93c6.05-4.23,11.77-9.06,17.09-14.18
			c13.46-12.98,15.07-24.01-5.94-30.43C1857.03,2544.29,1873.27,2527.82,1897.63,2530.04z"/>
		<path class="st1" d="M1450.33,2744.04c121.61,52.17,247.31,69.7,378.03,44.77c4.59-6.8,11.62-9.18,19.14-10.72
			c17.14-1.56,32.35-10.3,49.09-13.42c3.81-0.37,7.44,0.18,10.77,2.19c-1.24,8.16-6.33,15.37-13.59,15.88
			c-29.04,2.06-43.92,26.02-65.15,40.04c-18.3,1.61-35.98,8.57-54.73,6.38c-33.21,5.94-66.89-0.88-100.14,3.68
			c-91.72-6.44-178.96-29.92-262.3-68.57c-6.42-2.98-13.84-3.79-20.8-5.61c-59.24-26.06-107.69-69.06-161.68-103.37
			c-4.84-3.08-8.94-7.42-8.19-14.14c-2.72-4.96-5.99-9.72-8.03-14.95c-2.41-6.17,0.19-11.33,5.87-14.4
			c8.25-4.46,11.55,2.36,15.51,7.38C1303.51,2665.46,1370.81,2715.34,1450.33,2744.04z"/>
		<path class="st6" d="M1220.77,2641.16c52.85,35.8,102.98,75.71,159.72,105.62c4.91,2.59,11.15,4.18,10.15,11.88
			c-16.31,10.45-32.79,4.17-49.55,1.2c-9.64-1.71-19.76-0.63-29.67-0.81c-21.74-0.47-44.2,6.74-64.81-6
			c-42.03-29.32-74.43-70.11-117.21-98.57c-7.5-4.99-14.39-10.88-21.55-18.68C1145.52,2635.74,1183.3,2632.42,1220.77,2641.16z"/>
		<path class="st3" d="M2071.18,787.75c-0.13-14.69-14.64-19.29-21.43-29.39c-5.55-8.26-1.55-10.9,2.55-15.47
			c58.36,30.59,112.8,66.24,153.77,119.27c-7.8,12.38-23.08,11.39-33.73,18.87c-8.69,6.1-8-3.12-10.84-7.38
			c-4-6-0.47-19.71-14.98-15.63C2119.23,836.92,2092.49,815.26,2071.18,787.75z"/>
		<path class="st3" d="M1848.38,2784c-6.67,1.61-13.34,3.21-20.02,4.82c-10.89-4.93-26.54-4.53-17.52-25.8
			c3.26-7.69-21.03-19.11-7.17-31.14c9.16-7.96,19.05,7.31,30.81,9.16c30.76,4.85,60.94,0.94,84.08-14.73
			c18.5-12.53,38.81-23.23,56.61-38.16c-3.72,13.82-13.31,26-8.3,41.01c-16.7,17.53-38.48,27.02-59.51,37.71
			c-3.11,0.67-6.22,1.35-9.32,2.03C1879.98,2768.98,1864.36,2777.09,1848.38,2784z"/>
		<path class="st3" d="M2008.24,2684.85c-7.87-7.05,5.37-13.4,0.7-20.23c-2.8-4.1-10.18-9.79-10.87-8.1
			c-10.39,25.39-36.49-16.48-44.89,10.7c-2.12,6.85-2.9,12.81-13.74,13.76c8.77-19.16-6.39-43.33,17.22-58.76
			c5.84,4.36-7.87,20.48,9.63,17.45c9.64-1.67,22.5-2.06,19.77-16.07c-3.27-16.81,5.88-15.26,14.88-11.47
			c12.19,5.14,24.67-2.23,36.43,2.75C2039.23,2643.03,2023.39,2663.79,2008.24,2684.85z"/>
		<path class="st5" d="M1246.62,2753.05c21.63,1.71,43.72-1.64,64.8,6c-3.79,1.03-9.16,0.9-8.24,6.76
			c0.89,5.71,6.74,9.56,10.82,7.45c21.56-11.15,31.86,12.08,48.72,15.26c8.86,1.67,9.31,11.25,6.78,18.57
			c-3.48,10.05-11.85,7.5-18.52,4.25c-12.39-6.03-26.17-8.95-36.34-20.09c-6.84-7.49-16.73-13.19-28.42-8.44
			C1271.48,2774.97,1258.48,2764.76,1246.62,2753.05z"/>
		<path class="st7" d="M1713.64,607.34c-9.91-15.83-3.06-33.51-3.81-49.89c-4.34-95.08-28.77-185.15-60.68-274.01
			c-23.96-66.7-64.65-120.1-120.3-162.94c-1.76-1.35-2.36-4.21-3.5-6.36c99.55,39.52,154.86,117.7,183.21,216.42
			c24.75,86.17,29.75,174.03,6.43,262.01C1713.74,597.29,1714.05,602.41,1713.64,607.34z"/>
		<path class="st8" d="M1505.71,267.03c-8.61,12.54-4.73,26.43-2.05,42.29c-50.17-28.73-97.6-56.02-145.18-83.04
			c-10.67-6.06-22.04-10.85-32.77-16.8c-7.54-4.19-20.42-5.94-18.33-16.99c1.87-9.85,9.71-18.79,20.66-22.25
			c3.82-1.21,8.15-0.8,12.12-1.13c3.14-8.4-15.34-5.14-7.94-15.55C1402.62,172.13,1458.24,213.34,1505.71,267.03z"/>
		<path class="st0" d="M1933,690.89c-6.02,2.28-10.18-1.8-14.8-4.32c4.17-5.09,5.21-16.05,14.57-12.25
			C1941.69,677.94,1931.95,685.22,1933,690.89z"/>
		<path class="st9" d="M1897.63,2530.04c-20.62,6.39-36.44,23.82-59.02,25.69c-133.09,17.31-241.24-39.11-342.26-116.2
			c-95.3-72.72-166.02-168.02-239.13-261.16c-22.95-29.23-46.71-57.92-75.5-81.85c-25.01-29.17-56.95-50.49-85.61-75.52
			c-46.22-40.37-79.62-87.99-89.3-150.34c-14.17-91.29,39.83-160.2,131.73-166.8c4.8-0.34,9.62-0.55,16.68-0.94
			c-6.86-11.38-17.82-14.14-26.16-19.73c-83.15-55.72-123.14-137.73-134.94-233.21c-13.96-112.97,6.68-220.3,75.17-313.82
			c57.78-78.89,134.26-119.47,234.65-99.33c67.31,13.5,119.68,51.28,159.68,105.89c87.81,119.9,111.63,251.84,71.53,395.17
			c-0.39,1.38,0.55,3.13,1.34,7.05c23.62-31.29,42.02-64.32,66.39-93.08c25.39-29.96,53.7-56.65,86.28-78.23
			c47.51-31.48,96.39-19.88,144.94-1.54c5.07,1.91,8.93,7.33,16.41,5.32c-11.17-47.57-19.94-95.15-12.66-144.36
			c7.08-47.91,19.76-93.77,43.57-136.18c3.65-6.5,8.18-12.55,7.57-20.56c0.7-2.25,2.18-3.71,4.43-4.39
			c6.64-3.35,11.25-8.74,15.04-14.96c5.23-15.08,15.06-25.49,30.58-30.11c10.4-11.55,26.18-13.14,38.63-20.9
			c16.49-17.38,37.82-13.96,57.51-11.06c30.35,4.47,61.61,9.05,81.46,37.35c8.32,6.8,16.65,13.59,24.97,20.39
			c-13.13,14.92-21.36-0.04-30.04-5.74c-34.35-22.56-71.69-31.87-112.37-28.1c30.03-0.13,60.22-0.33,87.43,15.58
			c25.69,15.02,48.2,34.08,67.97,54.22c-3.9-6.55-13.24-14.45,1.02-22.11c8.33,8.34,16.67,16.67,25,25.01
			c33.32,47.86,60.47,98.83,72.72,156.26c7.13,33.44,10.93,67.42,14.37,101.67c6.01,59.78-5.23,114.65-26.34,168.82
			c-12.6,32.34-33.47,59.49-60.81,83.71c20.02,11.8,34.57,28.26,50.7,42.96c-7.83,16.07-18.19,8.29-25.02,0.72
			c-37.87-41.93-91.03-64.74-129.98-105.16c-6.81-7.07-21.05-13.05-3.55-23.79c23.98,4.9,39.53,23.29,58.21,36.64
			c28.23,20.17,36.52,19.58,55.83-9.58c37.08-56.01,50.18-119.06,46.85-184.99c-2.6-51.51-13.61-102.16-32.7-150.22
			c-25.69-64.66-63.38-120.48-127.15-153.81c-44.68-23.35-89.46-15.84-125.76,18.4c-26.05,24.58-43.01,54.48-54.97,87.67
			c-10.46,29.05-15.52,59.33-19.86,89.73c-5.6,15.85-0.87,32.8-4.99,48.5c4.75-18.54,12.46-35.21,24.04-50.25
			c38.79-50.35,106.28-51.42,147.18-2.05c3.21,3.87,5.67,8.13,5.45,13.44c-1.3,4.75-4.19,6.8-9.13,5.38
			c-7.34-2.1-13.4-6.59-19.27-11.08c-64.8-49.54-108.05-11.35-125.35,58.95c-5.67,23.06-15.91,43.35-25,64.31
			c-7.55,17.42-23.86,13.67-38.85,7.96c-42.28-16.12-68.18-19.14-96.51-11.62c47.89-4.45,91.11,7.32,130.27,34.18
			c12.31,8.44,25.52,15.44,37.8,23.79c7.84,5.34,20.94,10.38,10.91,24.55c-9.79,2.33-17.07-3.29-24.74-7.71
			c-31.2-20.21-63.44-38.21-99.7-48c-29.61-8-57.09-4.66-81.95,14.25c-53.44,35.19-85.19,89.47-122.44,138.95
			c-39.92,53.02-82.08,104.1-134.26,145.74c-59.29,47.31-126.53,62.61-200.47,46.46c-30.03-6.56-59.83-12.46-90.86-11.26
			c-75.96,2.94-123.77,65.21-108.45,139.75c11.68,56.81,48.76,96,90.8,129.71c76.34,61.2,140.58,133.03,198.35,211.26
			c15.28,20.69,31.41,40.6,48.96,59.39c77.24,94.03,167.84,171.16,280.42,219.81c43.8,18.93,90.63,28.97,137.94,24.93
			c81.22-6.94,132.3-55.55,151.54-137.38c6.28-26.72,9.41-54.11,10.22-81.17c1.98-65.69,9.84-130.22,27.57-193.51
			c13.73-59.15,34.91-115.49,64.21-168.71c8.36-15.18,15.99-30.91,29.72-42.32c14.54-10.14,28.71-20.78,42.49-31.98
			c6.54-5.31,12.61-13.79,22.98-6.85c-27.74,42.05-56.76,83.18-76.86,129.94c-29.08,67.64-54.65,136.03-66.88,209.21
			c-5.27,31.51-2.38,63.1-6.9,94.36c-22.36,33.65-17.67,74.45-29.25,110.95c-1.86,2.76,3.65,2.35,0.47,1.4
			c-0.67-0.2-0.33-0.9,0.56-2.39c3.69-6.15,6.08-14.2,16.15-10.55C1977.35,2449.56,1944.55,2494.46,1897.63,2530.04z"/>
		<path class="st1" d="M1014.24,997.16c-4.16-28.24-2.72-53.78,8.91-78.29c26.51-55.86,64.26-102.01,117.14-134.93
			c41.18-25.63,85.26-29.44,131.1-15.84c9.36,2.78,18.32,7.67,26.71,12.82c10.75,6.6,23.31,17.47,19.41,28.75
			c-5.77,16.67-20.53,2.77-29.77,0.5c-46.6-11.43-88.61,0.04-128.44,22.91c-54.91,31.53-92.31,79.36-122.17,134.09
			C1031.55,977.38,1027.87,989.69,1014.24,997.16z"/>
		<path class="st10" d="M2071.18,787.75c28.07,20.25,55.14,41.56,75.34,70.26c3.36,19.14,20,35.34,12.93,60.32
			c-10.58-9.94-19.3-18.14-28.02-26.33c-31.02-23.6-62.64-46.39-94.05-69.46c-39.14-17.19-79.62-17.35-121.11-11.19
			c-10.19,1.51-26.51,7.04-27.39-13.71l-0.24,0.45c13.42-10.04,26.83-20.08,40.25-30.12l-0.42,0.21
			C1979.22,751.53,2026.16,762.64,2071.18,787.75z"/>
		<path class="st3" d="M2116.62,1032.26c-43.32-24.65-87.61-44.23-138.98-26.29c-16.4-5.46-34.38-7.07-39.79-29.61
			c-2.1-8.77-16.71-2.84-25.15-6.04c-0.59-9.06,5.71-11.5,11.98-13.12c6.47-1.67,14.44-1.7,11.66-11.57
			c-2.14-7.6-9.44-10.31-15.97-8.61c-24.24,6.33-29.83-9.39-36.13-28.69c5.13,0,9.2-1.29,11.1,0.2
			c20.45,15.97,41.54,14.37,63.11,3.03c6.41-3.37,10.84-1.15,15.06,3.84c5.03,5.96,1.79,10.38-1.84,15.33
			c-10.24,13.97-6.7,20.79,10.82,21.08c6.74,0.11,16.1-3.61,18.77,6.75c1.5,5.81-4.81,7.83-8.46,10.97
			c-6.83,5.87-13.67,9.46-21.97,2.38c-4.15-3.54-7.36-9.13-14.4-8.03c6.66,17.67,21.26,24.33,39.68,14.71
			c18.8-9.81,36.12-9.38,54.26-0.63c12.32,5.95,25.92,5.02,34.85-3.03c13.93-12.56,20.74-3.57,27.74,5.73
			c5.41,7.19,8.61,16,13.25,23.81C2134.11,1017.75,2135.26,1028.34,2116.62,1032.26z"/>
		<path class="st3" d="M2037.38,822.54c37.56,14.74,69.23,37.46,94.05,69.46c-8.81,4.31-17.66,8.59-24.66,19.04
			c6.92-36.14-32.05-37.57-41.89-60.51c-1.32-3.09-6.81-1.83-8.31,1.19c-7.59,15.29-25.84,19.79-33.86,35.14
			c-7.06,13.52-33.62,12.75-41.34,0.09c-3.25-5.34-1.36-9.19,3.07-12.65c31.41-24.51,31.55-31,0.15-53.18
			c9.86-7.33,18.67-1.77,27.86,0.05C2020.52,822.78,2028.62,832.06,2037.38,822.54z"/>
		<path class="st11" d="M2155.6,1066.51c-11.94,17.61,16.21,21.32,10.93,38.88c-16.7-14.09-32.92-28.12-49.52-41.68
			c-21.02-17.17-42.2-35.01-70.76-36.92c-17.19-1.15-34.62,0.49-51.88,1.69c-4.97,0.35-10.45,3.07-12.66-2.99
			c-2.35-6.44,4.26-7.64,8.21-10.11c26.25-16.44,51.56-1.62,76.09,4.33c21.64,5.25,44.53,11.43,60.23,30.64
			c2.92,3.57,9.31,7.86,15.35,2.31C2148.5,1055.01,2153.32,1059.48,2155.6,1066.51z"/>
		<path class="st3" d="M1893.4,1071.94c-1.48,1.46-2.95,2.93-4.43,4.39c-16.16,6.64-13.97,27.05-26.66,36.27
			c-18.07-11.65-16.54-26.73-10.68-44.42c4.9-14.79,15.59-11.2,25.67-11.98C1888.89,1055.3,1893.96,1060.62,1893.4,1071.94z"/>
		<path class="st3" d="M2081.76,922.14c6.48,4.04,16.33,2.12,18.74,10.41c2.53,8.7-6.13,10.4-11.73,12.82
			c-5.38,2.33-10.46,3.75-11.47,10.9c-0.85,6.03-1.22,15.33-11.12,10.57c-7.52-3.61-16.2-7.68-11.55-20.41
			C2059.64,932.76,2068.16,925.06,2081.76,922.14z"/>
		<path class="st3" d="M1939.02,1026.87c-10.19,10.04-20.38,20.07-30.58,30.11c-4.8-8.03-5.49-16.84-5.56-25.97
			c-0.07-8.95-5.77-24.74,4.81-23.91C1917.64,1007.89,1941.05,1001.63,1939.02,1026.87z"/>
		<path class="st3" d="M2047.49,929.11c-12.07,3.39-22.81-4.87-29.39,7.95c-3.54,6.89-11.29,4.91-16.35-1.48
			c-2.95-3.73-9.34-6.04-7.87-11.64c2.98-11.33,10.71-1.99,16.18-2.78C2022.44,919.37,2036.59,909.14,2047.49,929.11z"/>
		<path class="st3" d="M1888.89,797.64c-3.41,4.39-6.33,9.36-10.48,12.88c-1.6,1.36-6.28,0.11-9.02-1.14
			c-3.57-1.63-4.37-6.05-1.6-8.17c10.81-8.28,13.56-24.86,30.73-29.39c1.76,11.65-13.3,15.9-9.87,26.27
			C1888.65,798.09,1888.89,797.64,1888.89,797.64z"/>
		<path class="st3" d="M1928.9,767.97c-0.81-0.06-1.68,0.04-2.42-0.22c-7.41-2.64-21.93,4.76-21.04-8.51
			c0.79-11.74,14.63-5.12,22.64-6.65c3.07-0.59,6.41,0.23,9.61,0.4c3.33,9.36-8.65,8.71-9.22,15.19
			C1928.48,768.18,1928.9,767.97,1928.9,767.97z"/>
		<path class="st3" d="M2170.09,1064.73c-6.18-4.48-14.62-7.87-14.48-17.3c0.07-4.42,5.47-6.16,9.56-5.42
			c7.73,1.39,13.77,5.99,14.76,14.06C2180.64,1061.82,2176.12,1064.48,2170.09,1064.73z"/>
		<path class="st3" d="M2249.37,1113.87c1.19-6.15,5.42-10.08,11-11.02c5.3-0.89,9.47,2.73,9.23,8.36
			c-0.25,6.15-4.7,10.91-10.3,11.6C2254.48,1123.41,2250.95,1118.95,2249.37,1113.87z"/>
		<path class="st12" d="M2152.01,1857.99c-20.33,7.58-33.14,25.52-50.67,37c-3.16,2.07-4.84,7.36-9.4,2.15
			c-6.1-15.93,8.5-23.22,14.42-34.05c4.3-7.86,11.93-13.62,15.03-22.39c-44.07-21.65-69.67-14.62-94.45,25.31
			c-22.91,36.92-35.88,77.85-48.58,118.94c-20.66,65.01-33.9,131.32-39.03,199.49c-4.03,53.65-7.81,107.54-24.34,159.41
			c-22.35,70.13-81.03,104.95-154.65,91.48c-85.04-15.55-155.77-57.87-219.01-115.29c-95.52-86.72-168.7-190.77-236.74-299.24
			c-32.41-51.66-74.08-95.36-124.35-130.47c-22.78-15.91-27.55-14.81-38.36,9.65c-3.76,8.5-5,22.44-18.52,18.24
			c-11.83-3.68-13.31-16.41-11.62-27.43c3.79-24.79,19.11-41.59,39.91-54.14c17.19-10.37,34.97-19.24,55.56-19.61
			c7.2-0.13,16.34-0.74,18.66,8.28c1.94,7.5-5.39,11.22-10.64,15.21c-4.51,3.44-10.87,4.39-14.52,11.67
			c15.4,12.33,34.88,16.59,52.29,24.88c21.01,9.48,42.6,17.19,65.36,21.34c93.78,21.88,185.6,15.31,276.66-15.77
			c94.1-32.11,186.8-68.84,284.42-89.92c30.83-6.38,62.62-4.69,93.43-11.24c15.9-1.11,31.81-0.62,47.71-0.43
			c57.47,1.45,113.83,9.86,168.56,27.86c26,8.55,52.23,16.18,78.86,22.26c11.88,1.59,26.3,11.44,35.06,0.85
			c8.26-9.99-2.04-23.41-5.56-35.02c-6.29-20.74-23.24-36.17-28.86-57.31c6.05-14.89,13.72-8.05,19.77-0.67
			c15.17,18.52,30.89,36.86,34.05,62.16c1.68,13.45,7.12,23.71,23.41,21.97c-0.05,41.93-21.84,57.94-67.33,48.24
			c-26.35-5.62-53.08-10.87-78.29-20.01C2181.56,1844.6,2166.47,1843.57,2152.01,1857.99z"/>
		<path class="st11" d="M2345.88,1823.15c-14.61,15.54-19.6,15.43-24.78-4.39c-7.36-28.19-16.77-54.73-37.33-76.2
			c-3.62-3.78-5.44-12.02-12.51-3.77c-4.5,1.51-8.34-0.19-11.14-3.35c-92.95-104.95-211.93-176.21-326.51-253.22
			c-10.42-7.01-23.92-12.11-26.07-27.43c3.8-2.74,2.85-6.39-0.13-8c-29.43-15.94-53.13-41.27-85.62-52.18
			c-32.01-10.75-64.02-21.29-98.45-11.96c-5.61,1.52-10.7-0.03-11.9-5.52c-1.55-7.06,5.51-6.69,9.75-8.34
			c37.33-14.52,73.04-2.97,107.09,10.2c21.1,8.17,26.82,6.07,37.87-15.4c18.02-35.03,16.34-76.58,43.16-108.66
			c24.91-29.78,56.72-39.1,90.97-19.54c14.16,8.09,24.77,22.4,42.38,24.44c10.13-1.26,15.13,6,19.46,12.85
			c48.39,76.63,54.1,156.43,17.07,239.21c-1.37,3.06-3.82,5.37-6.54,7.33c-4.06,2.82-5.76,7.9-1.66,10.03
			c33.37,17.33,52.93,52.22,89.76,66.67c18.91,7.42,33.11,27.93,48.07,43.83c7.25,7.71,12.8,12.49,22.43,5.19
			c47.48,37.9,84.35,84.11,108.97,139.8C2345.58,1796.89,2348.31,1809.71,2345.88,1823.15z"/>
		<path class="st11" d="M1989.31,2390.91c-12.31,7.04-15.04,20.27-21.79,31.9c-3.17-21.28,3.06-41.69,6.66-62.03
			c1.87-10.58,3.58-20.91,3.61-31.62c0.04-12.82-2.99-27.58,17.83-27.54c1.92,0,3.85-6.6,5.77-10.14
			C2000.03,2324.96,1998.54,2358.41,1989.31,2390.91z"/>
		<path class="st5" d="M1698.1,2861.35c-14.51,26.11-13.26,28.63,15.79,32.45c4.83,0.63,10,1.02,14.24,3.1
			c4.1,2.02,9.16,5.32,6.62,11.45c-1.79,4.32-6.92,6.34-10.41,4.85c-35.48-15.14-74.4,3.42-108.95-10.71
			c-11.16-4.56-32.66-3.38-31.31-27.41c0.43-7.72-24.04-8.78-29.44-1.19c-7.71,10.84-52.52,8.32-57.94-3.37
			c-1-2.16-1.32-4.84-1.25-7.27c0.48-18.59,35.81-45.74,53.84-41.99c21.73,4.53,43.54,8.78,65.44,12.37
			c8.07,1.32,15.42,2.16,14.1,12.61c-0.93,7.39-1.41,14.17,8.76,12.37c6.55-1.16,17.58,6.5,18.32-8.8
			c0.47-9.75,8.86-10.48,16.65-10.83c44.53-2.01,89.33,4.44,133.68-4.62c6.08-1.24,14.77-0.34,13.59,9.45
			c-0.92,7.64-5.31,14.66-14.5,14.1c-8.14-0.49-16.28-2.21-24.25-4.1c-19.4-4.61-34.32-3.12-43.87,18.86
			C1731.63,2885.5,1714.78,2880.11,1698.1,2861.35z"/>
		<path class="st5" d="M1421.42,2844.62c7.08-7.96,14.84-3.86,20.45-7.18c8.09-4.8,16.26-10.46,10.96-21.45
			c-4.47-9.26-11.77-13.35-22.24-7.12c-9.69,5.77-19.96,7.14-30.76,2.22c-9.56-4.36-10.35-12.08-8.56-20.72
			c1.57-7.58,8.52-13.52,14.18-10.29c22.65,12.93,50.46,5.14,72.62,20.12c14.69,9.93,16.96,38.77,0.86,47.26
			C1460.57,2857.13,1441,2861.23,1421.42,2844.62z"/>
		<path class="st5" d="M1849.97,2902.03c-7.04-11.66-21.88,20.7-25.21-2.63c-2.59-18.16,18.88-0.11,24.06-10.9
			c0.29-0.6,1.4-0.78,2.11-1.21c6.69-4,12.42-12.27,21.66-5.25c4.25,3.23,2.41,7.29,0.72,11.08
			C1868.73,2903.37,1860.66,2905.04,1849.97,2902.03z"/>
		<path class="st13" d="M1673.74,2832.85c33.14-7.93,66.79-1.57,100.14-3.68C1740.81,2838.72,1707.16,2832.66,1673.74,2832.85z"/>
		<path class="st3" d="M1885.66,2684.5c8.22,0.75,20.24-1.46,19.79,9.6c-0.47,11.77-13.36,17.03-23.23,17.98
			c-7.69,0.74-16.12-8.22-16.51-16.09C1865.05,2682.32,1877.47,2685.6,1885.66,2684.5z"/>
		<path class="st3" d="M1910.66,2673.38c-9.64-3.13-11.83-6.23-11.78-10.64c0.05-4.77,2.73-7.58,7.51-7.2
			c5.24,0.42,9.6,2.67,8.01,9.01C1913.42,2668.48,1911.22,2672.11,1910.66,2673.38z"/>
		<path class="st3" d="M1848.38,2784c14.2-12.78,29.8-20.95,49.65-15.1C1882.58,2777.56,1865.64,2781.31,1848.38,2784z"/>
		<path class="st14" d="M1377.78,2277c-43.28-45.84-76.81-99.53-118.14-146.97c-36.03-41.36-75.49-78.81-118.53-112.96
			c-47.15-37.41-87.69-79.84-101.11-142.48c-16.03-74.86,34.88-142.77,111.3-146.31c34.39-1.59,67.35,5.28,100.59,12.28
			c68.58,14.43,132.14,0.48,186.48-42.86c71.85-57.3,125.98-130.89,179.16-205.13c22.57-31.5,47.16-61.93,81.77-81.83
			c17.01-5.47,28.25,3.47,38.35,15.33c5.79,32.75,25.7,47.87,58.54,48.75c15.73,0.42,19.47,11.26,9.31,21.47
			c-19.73,19.83-27.56,51.78-60.48,58.72c-8.64,1.82-14.46,11.82-3.75,18.39c18.25,11.21,14.57,25.37,9.85,39.68
			c19.73-22.71,41.1-21.23,56.94,5.17c5.09,0.85,9.31-3.2,9.25-6.23c-0.8-40.89,38.39-41.43,60.07-59.1
			c9.2-7.5,24.23-11.3,34.52-1.25c12.06,11.77,0.34,21.88-5.6,32.68c-11.32,20.57-1.72,41.15,7.61,58.16
			c7.08,12.9,7.52,19.02-4.33,25.51c-7.46,4.09-13.04,9.73-18.78,15.82c-13.19,13.99-27.03,14.91-40.03-0.72
			c-3.77-4.53-7.96-8.46-13.29-10.93c-4.24-1.96-8.02-0.87-10.83,2.96c-1.03,1.4-1.48,3.09-0.97,4.75c1.73,5.58,5.87,4.66,9.92,3.37
			c16.78-5.34,18.46,5.73,18.13,17.45c-0.39,13.64-8.68,19.01-21.68,17.16c-10.22-1.46-19.85-5.22-23.99-15.41
			c-9.59-23.56-21-14.35-32.99-2.59c-7.89,7.73-10.72,18.66-17.17,27.22c-11.99,15.9-39.48,16.65-45.65-0.7
			c-6.62-18.61-13.4-21.5-28.7-10.82c-3.21,2.24-7.68,0.59-11.95-1.25c13.72,11.42,13.43,20.04-4.1,25.55
			c-21.16,6.65-41.24,16.97-65.26,18.61c15.19,10.59,18.05,28.52,29.42,40.51c5.23,5.51,6.65,11.45,1.92,17.83
			c-5.14,6.92-11.94,12.1-20.72,12.06c-8.25-0.04-10.38-6.88-11.53-13.78c-0.97-5.78-1.69-13.36-7.2-15.12
			c-30.33-9.67-26.03-31.05-16.8-57c-18.68,8.12-26.78,21.4-33.23,35c-5.43,11.43-0.56,23.29,6.69,32.59
			c7.06,9.05,10.1-3.98,15.96-4.7c12.86-1.58,22.66,3.86,31.02,12.31c7.73,7.81,5.18,16.94,0.76,25.35
			c-7.86,14.94-19.05,26.92-33.55,35.8c-68.2,22.72-138.3,17.13-208.19,14.37c-28.87-16.79-59.12-29.02-93.28-30.11
			c-13.11-0.42-22.41-7.68-20.95-22.31c1.97-19.7-12.45-21.81-25.27-22.8c-44.21-3.43-77.94,15.64-101.82,52.1
			c-5.84,8.91-7.67,20.28-6,31.26c2.57,16.96,16.15,23.45,30.04,14.79c24.46-15.25,45.23-7.05,70.27,3.53
			c33.57,14.2,42.72,43,57.82,68.96c13.34,22.93,34.42,36.99,52.82,54.54c21.14,20.16,34.64,47.68,49.96,72.7
			c33.22,54.25,74.08,102.17,114.21,151.04c18.82,22.92,39.63,43.6,59.38,65.45c3.37,3.73,6.72,7.83,11.46,9.31
			c36.89,11.5,62.39,42.65,96.72,57.31c38.04,16.24,78.07,27.53,118.67,37.56c54.96,13.57,93.65-11.14,131.89-42.77
			c5.76-4.76,11.1-10.14,18.57-12.09c7.68-2.01,14.98-1.12,20.52,5.17c6.03,6.83,5.3,15.68-0.76,20.17
			c-33.79,25.07-33.9,75.55-74.91,95.93c-23.89,11.88-45.74,22.26-73.32,14.42c-21.48-6.1-44.1-3.63-66.61-9.33
			c-46.95-11.88-93.3-25.6-134.54-49.79c-36.16-21.21-67.34-49.81-96.17-82.14c-28.43-31.88-59.28-64.07-98.35-84.8
			C1389.57,2287.81,1385.57,2280.1,1377.78,2277z"/>
		<path class="st15" d="M1309.7,1710.24c-150.74-4.71-263.17-108.24-282.93-254.47c-14.53-107.54,2.54-208.1,67.23-295.99
			c49.89-67.79,115.67-109.6,205.01-88.14c64.49,15.49,114.47,53.88,151.11,108.65c82.01,122.58,96.51,254.34,43.64,390.98
			c-22.26,57.53-68.21,98.72-122.51,128.56C1351.06,1710.93,1328.13,1709.84,1309.7,1710.24z"/>
		<path class="st15" d="M2072.64,1519.22c6.22-31.16,20.63-60.12,22.44-92.64c3.48-62.47-10.14-118.98-52.43-166.76
			c-14.2-20.9-35.65-31.29-58.25-39.79c-43.29-16.29-78.19,9.95-100.7,54.29c-6.13,12.06-10.34,25.76-10.67,40
			c-0.09,3.87-2.03,6.04-4.6,1.01c-0.71-1.4-0.59-3.23-0.85-4.87c-2.79-20.09-3.02-40.18,0.12-60.26
			c5.12-67.91,25.33-129.04,73.41-180.06c44.42-47.13,113.11-42.59,159.69-7.75c77.26,57.79,112.2,139.47,130.69,230.55
			c16.21,79.86,11.61,157.45-25.27,231.5c-0.73,1.47-1.57,2.87-2.36,4.31c-31.67,57.61-42.44,59.35-92.05,17.08
			C2099.86,1535.65,2085.75,1528.02,2072.64,1519.22z"/>
		<path class="st16" d="M1377.78,2277c35.3,6.48,57.9,30.56,79.24,56.68c3.5,4.28,8.9,7.17,13.79,10.1
			c15.8,9.45,30.94,19.79,37.04,38.21c4.87,14.7,20.13,16.02,29.09,24.92c12.21,12.14,19.35,30.25,41.02,29.49
			c4.41-0.15,5.99,4.92,6.64,9.26c1.37,9.06,6.96,11.92,15.77,11.74c17.36-0.37,31.04,8.03,43.04,19.76
			c3.46,3.39,8.33,10.21,10.35,9.47c29.26-10.74,51.36,17.38,79.12,14.14c4.25-0.5,9.11,2.94,13.45,5.04
			c2.16,1.04,3.58,3.52,5.69,4.76c13.77,8.11,25.44-13.88,38.92-3.24c11.54,9.11,21.13,7.75,36.09,6.37
			c24.26-2.25,33.15-23.44,52.66-28.13c9.66-2.32,11.88-11.2,14.92-18.53c9.09-21.91,17.69-43.78,37.85-58.71
			c5.32-3.94,13.83-9.84,5.89-18.1c-6.76-7.03-15.17-5.46-22.35,0.53c-4.44,3.7-8.76,7.71-12.44,12.15
			c-20.17,24.32-52.6,28.34-76.87,46.26c-7.27,5.37-21.48,3.85-31.37-0.83c-16.42-7.76-35.19-13.08-51.25-11.92
			c-23.07,1.66-37.63-11.35-55.29-19.41c-5.31-2.42-9.35-4.81-15.92-3.83c-9.86,1.48-20.24-0.85-26.56-9.48
			c-7.94-10.85-20.15-14.14-31.06-19.64c-8.65-4.37-19.38-5.25-21.89-17.57c-0.53-2.6-4.12-6.03-6.76-6.51
			c-27.04-4.91-44.04-22.96-64.39-40.04c-25.72-21.58-40.47-49.63-60.66-74.13c-6.86-8.33-12.14-15.47-22.11-20.95
			c-15.82-8.7-27.95-22.81-30.13-41.87c-1.87-16.31-15.41-26.01-23.87-35.85c-19.13-22.26-33.6-48.34-48.87-71.91
			c-15.52-23.95-40.24-33.42-54.74-53.74c-14.01-19.63-35.72-36.26-37.17-63.18c-0.73-13.51-1.01-23.78-19.03-16.52
			c-5.65,2.28-12.6,0.7-14.59-5.85c-5.45-17.98-21.89-17.58-35.25-22.84c-11.17-4.4-20.25-4.27-28.33,6.05
			c-7.86,10.04-17.81,10.18-28.88,4.5c-11.51-5.91-19.51-14.52-16.3-27.5c3.76-15.18-2.06-35.92,21.8-41.55
			c4.31-1.02,9.09-8.35,10.11-13.47c3.05-15.25,14.77-20.7,26.75-21.63c25.75-2,51.23-11.17,77.74-2.13
			c12.32,4.2,19.72,5.25,11.15,21.1c-9.15,16.93,4.82,20.23,17.37,19.23c24.25-1.93,45.03,9.34,67.16,15.49
			c7.69,2.13,12.54,7.69,16.32,14.37c-22,11.55-42.32-3.9-63.65-4.27c-9.51-0.17-19.01-3.94-28.87-3.26
			c-2.46,0.37-4.8,1.13-7.01,2.29c-24.05-8.03-47.32-17.74-70.16-31.29c15.17-8.14,28.77-15.45,43.54-23.38
			c-27.82-8.53-77.62,10.73-95.47,37c-11.23,16.53-19.78,34.45-2.85,53.28c2.35-1.5,4.43-2.08,4.65-3.07
			c10.89-49.57,14.73-60.64,62.49-23.85c61.69,47.52,107.29,107.2,147.56,172.31c69.76,112.81,151.19,215.8,258.87,294.92
			c59.4,43.65,125.08,73.9,201.34,72.48c44.39-0.82,88.34-33.27,103.57-75.6c15.54-43.21,20.64-88.03,24.24-133.59
			c6.4-81.05,16.29-161.73,44.62-238.8c2.67-0.53,6.06,0.45,6.15,2.56c1.25,27.09,6.98,53.89,5.6,81.12
			c-0.25,4.89-2.06,12.56-5.88,13.04c-31.62,4-11.07,19.03-6.85,30.46c2.24,6.08,0.17,13.23,4.99,19.13
			c7.62-8.31,3.63-24.18,18.19-27.31c0.57-0.12,1.43,0.63,2.01,1.13c1.17,1.03,1.15,2.49,0.09,4.23
			c-7.33,44.39-21.11,87.55-21.89,133.25c-0.58,33.64-4.67,67.28-8.14,100.82c-6.93,67.09-27.49,128.04-89.4,164.16
			c-59.51,34.72-122.98,26.39-184.68,6.44c-101.36-32.77-184.22-95.1-258.31-169.84C1415.09,2321.37,1396.94,2298.69,1377.78,2277z"
			/>
		<path class="st17" d="M1907.53,1454.79c59.33,46.07,124.64,83.38,185.74,126.91c64.88,46.21,125.3,97.19,177.98,157.1
			c17.2,26.54,33.57,52.87,41.19,84.79c4.56,19.08-0.26,21.2-15.76,19.57c-8.7-0.92-18.07,0.93-25.29-6.11
			c-26.12-45.38-60.11-84.15-97.91-120.18c-96.69-92.15-207.08-165.17-321.21-233.17c-22.12-13.18-44.52-25.66-68.03-36.17
			c-6.74-3.01-14.18-5.29-16.92-13.41c16.74-15.28,36.38-14.43,56.14,2.45c24.65,21.06,53.47,35.3,74.16,36.26
			c0.09-11.83-19.75-14.42-13.42-28.54c0.2-0.44,1.28-0.72,1.9-0.66c0.79,0.08,1.53,0.59,2.3,0.91
			C1894.79,1447.95,1901.16,1451.37,1907.53,1454.79z"/>
		<path class="st18" d="M1997.85,2107.07c-12.32,3.39-8.78,14.15-10.83,22.55c-1.43,5.84-1.75,14.51-11.2,12.8
			c-6.67-1.21-7.79-7.36-8.08-13.59c-0.49-10.41,1.9-19.58-11.91-27.52c-9.28-5.33,5.75-22.05,2.28-34.21
			c10.53-2.28,8.46,9.95,18.42,10.74c6.8-31.66-4.08-63.4-2.99-95.14c12.81-54.02,34.82-103.99,66.62-149.49
			c3.99-5.7,8.97-10.91,18.05-10.72c26.15,0.55,51.77,3.45,77.68,11.82c-14.77,21.92-33.87,39.26-43.95,62.81
			c-44.09,59.96-71.47,127.41-89.01,199.24C2001.95,2100.43,2001.64,2104.49,1997.85,2107.07z"/>
		<path class="st19" d="M1888.41,1444.52c-5.08,10.9,5.92,11.02,10.43,15.37c4.29,4.13,13.69,6.09,8.74,14.36
			c-4.21,7.03-12.34,14.57-20.46,8.61c-21.84-16.03-50.4-20.35-68.97-42.31c-13.52-15.99-31.67-14.07-49.42-6.22
			c-14.56,7.94-24.87-0.04-34.85-9.29c-12.92-1.39-20.2-16.44-34.58-14.3c35.17-29.26,73.75-23.76,112.1-9.33
			C1839.03,1411.81,1864.96,1426.2,1888.41,1444.52z"/>
		<path class="st11" d="M2230.48,1223.71c19.47,18.7,17.09,35.06,11.14,52.01C2233.22,1261.25,2229.71,1245.88,2230.48,1223.71z"/>
		<path class="st11" d="M1991.83,2229.71c11.3,16.03,0.63,29.26-3.29,43.35C1977.25,2257.02,1987.88,2243.8,1991.83,2229.71z"/>
		<path class="st11" d="M1966.75,1034.87c-2.54,7.71-9.54,9.77-16.79,10.93c-3.84,0.62-9.16,0.59-8.08-5.38
			c1.4-7.71,5.99-13.37,14.69-13.7C1961.77,1026.53,1966.38,1027.67,1966.75,1034.87z"/>
		<path class="st20" d="M1867.7,1250.2c-0.04,20.09-0.08,40.17-0.12,60.26C1861.58,1290.36,1859.49,1270.27,1867.7,1250.2z"/>
		<path class="st11" d="M2249.39,1348.93c-2.89-9.23-5.88-16.27,2.24-21.3c1.12-0.69,5.07,1,6.03,2.6
			C2262.55,1338.33,2258.39,1343.47,2249.39,1348.93z"/>
		<path class="st11" d="M2195.49,1567.01c0.94,11.23-2.87,17.15-12.33,18.51c-1.31,0.19-4.51-3.14-4.49-4.81
			C2178.82,1569.9,2186.69,1568.95,2195.49,1567.01z"/>
		<path class="st14" d="M1733.88,1425.05c11.62,3.1,23.23,6.2,34.85,9.3c101.77,45.05,193.17,107.54,282.79,172.25
			c70.32,50.77,135.89,107.77,190.97,175.53c13.12,16.15,28.47,31.79,28.91,54.91c-38.71-4.21-74.6-18.81-111.46-29.95
			c-44.68-13.51-91.14-15.57-137.24-19.68c-30.03-13-61.2-6.49-91.98-5.07c-115.76,5.33-221.13,49.89-328.41,87.31
			c-10.45,3.65-20.94,11.28-32.66,3.01c2.99-12.12,15.64-16.48,21.2-26.89c10.08-18.91,2.32-34.8-18.76-35.74
			c-2.91-0.13-6.64,1.18-8.76,3.15c-12.59,11.66-12.47,11.8-20.43-2.86c-18.49-34.06-1.96-64.56,41.22-75.2
			c4.71,8.76-3.6,14.99-4.88,22.47c-2.6,15.21-11.63,29.67,15.71,32.8c14.69,1.68,14.48,19.41,16.15,34.17
			c-0.28-10.02,42.53-1.1,7.87-26.99c-9.45-7.06-3.7-29.78-27.01-29.2c-4.35,0.11-1.2-19.42,9.54-18.67
			c23.7,1.65,42.75-11.05,64.13-16.11c4.58-1.08,11.29,0.32,10.94-6.68c-0.27-5.54-5.79-7.15-10.94-8.24
			c-5.42-1.15-15.85,2.43-13-8.42c2.02-7.68,10.72-8.37,16.37-3.28c12.89,11.63,18.74-1.43,26.98-6.55
			c10.81-6.71,19.25-7.82,17.87,9c-1.17,14.16,4.69,21.82,18.76,23.84c14.74,2.12,21.89-6.53,24.91-18.65
			c3.09-12.4,11.73-19.93,20.57-27.15c21.33-17.41,24.03-17.1,33.27,8c5.53,15.01,17.36,19.13,29,16.64
			c13.59-2.91,5.81-15.65,7.78-24.46c-11.6-2.71-17.35,19.88-28.36,3.23c-6.46-9.76-6.75-19.22,3.25-25.98
			c9.68-6.55,18.68-3.03,25.93,5.62c20.8,24.83,22.41,24.76,41.27,0.76c2.36-3,6.1-5.9,9.71-6.78c17.77-4.32,28.04-8.33,2.13-18.17
			c-5.75-2.18-4.98-10.57-3.17-15.86c3.5-10.2,4.43-17.97-5.85-25.84c-6.97-5.33-8.13-14.48,2.09-20.26
			c1.43-0.81,3.56-1.06,4.33-2.24c5.4-8.33,20.1-16.35,9.57-26.58c-7.77-7.54-23.43-4.23-31.4,3.65
			c-11.17,11.05-22.68,18.98-38.33,20.04c-10.76,0.72-11.89,8.2-10.45,15.85c1.65,8.73,2.24,16.47-6.04,21.95
			c-6.7,4.43-7.96,16.98-17.75,15.26c-10.03-1.76-4.81-12.41-6.98-18.92c-3.97-11.88-24.31-13.75-37.86-2.95
			c-8.61,6.87-15.26,16.88-31.46,15.88c9.16-11.35,24.63-16.17,20.24-32.66c-1.7-6.41-0.3-14.05-10.16-13.47
			c-5.57,0.33-15.2,6.69-11.78-6.17c2.84-10.66-0.69-30.46,16.87-27.73c17.7,2.75,21.95-6.78,27.57-17.7
			c8.69-16.89,27.69-25.71,35.05-47.18C1767.14,1482.17,1734.44,1473.1,1733.88,1425.05z"/>
		<path class="st21" d="M1798.81,2286.15c-20.38-77.58-68.27-136.94-126.83-188.51c-31.35-27.61-71.22-36.94-111.14-45.39
			c-55.2-11.68-106.16,4.25-156.48,23.26c-12.01,4.54-20.81,9.3-28.56-5.35c-27.68-52.33-57.55-103.22-107.6-147.58
			c93.25,27.11,179.77,32.35,267.93,12.74c45.18-10.05,89.63-21.73,133.06-37.51c6.9,9.23,7.51,10.96,0.42,13.45
			c-17.29,6.08-31.14,18.26-45.08,25.55c15.2,0.32,32.81-4.16,48.43,13.56c9.48,10.75,25.03-5.02,38.24-7.21
			c8.21-1.36,5.62-9.9,4.48-16.73c-2.8-16.74,6.48-23.97,22.36-16.28c11.6,5.62,20.41,15.41,35.36,5.25
			c6.77-4.6,13.75,2.59,13.31,12.17c-0.19,4.18-2.56,7.92-3.08,12c-3.87,30.38,8.26,40.32,43.81,30.73
			c-32.72-19.35-20.13-41.21-7.24-63.57c5.56-9.64,12.75-14.77,23.88-14.56c11.79,0.21,18.13,6.3,20.55,17.59
			c1.36,6.36,2.39,15.49,10.05,15.28c9.5-0.26,8-10.98,10.48-17.51c2.06-5.43,2.36-11.27,2.47-17.13
			c0.12-6.95-4.58-15.93,4.89-19.79c10.29-4.19,19.63,0.21,27.35,7.1c6.98,6.23,12.5,14.83,12.38,23.74
			c-0.27,18.65,4.14,32.64,24.5,36.94c-0.4,24.09-4.66,46.76-23.56,64.02c-5.14,26.51-10.27,53.02-15.41,79.53
			c-22.64-4.38-18.33-28.93-33.32-42.4c14.3,21.91,2.41,32.28-14.91,37.55c-16.17,4.91-17.3,21.13-27.13,30.25
			c-5.32,4.94,0.65,3.02,1.32,3.9c19.59,25.82,22.98,52.16,3.1,79.57c-9.21,12.69-3.84,31.07-17.01,42.81
			c-3.78,3.37,1.21,9.13,5.08,12.41c12.24,10.39,16.36,21.94,7.69,37.08c-10.4,18.16-23.8,8.46-36.75,5.19
			C1803.46,2287.69,1801,2287.41,1798.81,2286.15z"/>
		<path class="st22" d="M1644.5,2106.88c55.56,38.74,97.43,88.79,123.37,151.53c18.04,43.65,19.72,88.29,4.83,133.32
			c-3.54,10.7-7.95,14.46-21.52,10.76c-64.4-17.58-119.92-50.95-169.75-93.82c-42.64-36.68-82.67-76.32-116.69-121.51
			c-2.04-5.71,2.27-6.97,6.03-8.26c53.44-18.26,103.26-47.4,159.68-56.01C1644.07,2120.81,1632.1,2104.67,1644.5,2106.88z"/>
		<path class="st23" d="M1952.86,1937.64c-9.43-6.47-13.94,6.48-24.37,5.28c-3.06-26.36,8.69-62.06-36.94-70.31
			c6.44,17.24,2.61,32.25-2.69,47.42c-2.58,7.38,0.37,18.06-12.46,17.02c-9.23-0.75-14.8-6.92-17.36-15.54
			c-2.7-9.12,3.85-22.95-14.08-23.78c-17.54-0.81-15.79,14.54-23.02,22.94c-16.8,19.52-10.47,29.88,7.44,41.3
			c4.35,2.77,7.89,9.21,4.7,15.35c-2.6,5.01-8.2,4.59-13.16,5.15c-40.57,4.55-54.36-14.04-39.32-53.23
			c1.28-3.33,1.89-6.51-1.18-8.91c-4-3.14-8.84-2.24-10.54,1.82c-8.91,21.21-16.54,9.76-24.67-0.43
			c-7.02-8.8-16.18-10.48-26.87-7.88c13.62,33.01,13.66,33.25-19,38.71c-7.31,1.22-11.62,5.01-16.08,10.26
			c-5.77,6.81-14.61,4.85-16.07-1.83c-6.64-30.28-29.62-15.14-46-17.63c-5.97-0.91-11.9,6.74-22.93-2.59
			c26.7-4.99,40.14-28.29,64.88-32.84c5.87-1.08,13.04-1.33,6.03-10.09c66.68-27.21,133.63-53.63,204.03-69.96
			c3.66-3.4,8-4.56,12.88-4c12.95,4.15,25.66,2.59,38.23-1.81c3.1-0.88,6.29-1.56,8.8-3.82c26.42,0.01,52.84,0.03,79.26,0.04
			c9.82,13.19-0.77,18.62-9.42,24.79c-3.69,10.69-14.07,17.9-15.44,29.79C1979.01,1896.06,1976.16,1922.33,1952.86,1937.64z"/>
		<path class="st23" d="M1798.81,2286.15c6.44-0.86,12.11-14.65,18.16-4.58c8.04,13.39,11.91,9.38,19.24,0.31
			c9.31-11.53,8.95-22.43-3.35-29.19c-19.15-10.53-9.24-16.22-4.66-32.27c7.25-25.4,32.88-45.17,24.98-75.26
			c-4.53-17.28-7.01-35.28-33.41-33.72c13.75-5.97,25.77-9.33,26.18-26.61c0.19-7.89,11.97-10.08,19.81-12.72
			c14.18-4.78,28.64-9.07,11.66-27.55c-4.39-4.78-6.22-11.74-2.2-17.94c31.96,4.91,23.56,40.51,42.58,55.35
			c-6.94,14.18-0.39,31.28-9.71,44.94c-5.97,18.54-18.18,36.88-1.75,56.13c2.74,7.28,1.95,14.11-2.59,20.47
			c-10.67,11.28-20.29,22.72-5.86,37.91c-0.68,8.48,3.14,17.82-4.74,24.94c-11.82,2.68-7.21,12.76-8.48,19.81
			c-2.38,13.14-1.77,26.56-1.92,39.89c-4.44,8.57-6.72,18.39-14.4,25.09c-22.6,7.21-26.25,33.48-44.87,44.7
			c-6.23,5.79-15.07,10.65-21.55,6.25c-6.93-4.7-4.36-15.36-1.8-22.76c6.09-17.59,1.93-35.57,3.68-53.27
			c6.56-6.7,9.62-13.32-0.45-19.63C1796.66,2300.82,1799.02,2293.2,1798.81,2286.15z"/>
		<path class="st24" d="M1569.65,1872.65c74.37-24.32,147.2-53.2,222.49-74.86c70.43-20.26,142.46-24.68,215.13-24.49
			c10.11,0.03,15.88,3.26,15.43,14.1c-16.73,0.05-33.46,0.09-50.19,0.14c-31.5,0.34-63.15-0.56-93.26,11.31
			c-121.71,28.42-235.13,83.92-357.04,110.94c-68.76,15.24-138.89,14.67-207.49-6.15c-19.95-11.66-44.43-12.06-63.64-25.57
			c19.11-13.86,37.54,2.07,56.46,1.77c14.33-0.22,28.75,4.93,43.13,7.69C1424.01,1887.64,1497.69,1892.89,1569.65,1872.65z"/>
		<path class="st25" d="M1644.5,2106.88c-6.09,10.1,10.67,11.39,7.64,20.19c-58.06,2.65-107.93,31.22-160.47,51.53
			c-8.77,3.39-17.94,5.73-26.92,8.56c-25.64-23.89-42.77-54.31-63.93-81.75C1473.56,2057.69,1572.26,2058.52,1644.5,2106.88z"/>
		<path class="st11" d="M1952.86,1937.64c13.83-20.38,17-46.48,34.69-64.8c18.35,11.04,9.49,25.3,1.54,35.72
			c-13.27,17.4-20.98,35.89-21.06,57.48c-0.06,15.03-12.05,24.58-16.27,38c-4.96,15.73-11.63-6.42-18.56-1.62
			C1940.35,1981,1950.33,1960.45,1952.86,1937.64z"/>
		<path class="st11" d="M2002.98,1843.05c3.92-7.97,11.72-14.46,9.42-24.8c10.06-16.6,24.6-22.34,43.81-20.25
			c27.67,3.01,55.76,3.37,83.69,18.35c-18.48,7.83-37,5.09-50.27-1.4c-26.68-13.04-44.34,0.23-62.01,14.58
			C2019.85,1835.84,2014.41,1844.21,2002.98,1843.05z"/>
		<path class="st11" d="M1898.39,2201.62c6.7-5.5,4.16-13.06,4.45-19.99c-7.35-11.55-9.46-22.18,5.22-29.86
			c16.46-4.96,23.21-2.25,17.22,17.24c-3.52,11.45-1.5,24.55-2.35,36.89c-0.62,8.9,4.22,20.65-2.89,26.08
			c-10.08,7.7-11.42-12.39-21.59-10.47C1891.92,2214.9,1893.91,2208.27,1898.39,2201.62z"/>
		<path class="st11" d="M1888.47,2306.12c5.81-4.24,11.62-8.48,17.92-13.07c5.22,40.07-13.88,83.35-40.89,93.87
			c-6.72-14.37,4.4-21.9,10.46-32.45c5.37-9.34,28.38-17.46,7.5-33.36C1878.27,2313.81,1881.94,2309.49,1888.47,2306.12z"/>
		<path class="st14" d="M1879.25,1798.85c-1.89-1.45-7.66-3.9-4.9-4.37c32.44-5.47,64.52-18.61,98.16-6.94
			C1941.42,1791.32,1910.34,1795.09,1879.25,1798.85z"/>
		<path class="st21" d="M1888.47,2306.12c-1.67,4.99-3.34,9.99-5.01,14.98c-0.17,1.65-0.4,3.29-0.7,4.93
			c-10.71-20.5-4.96-41.95-1.49-62.46c1.47-8.7,9.75-7.36,11.89,2.76C1895.8,2280.09,1888.15,2292.64,1888.47,2306.12z"/>
		<path class="st11" d="M1888.28,1828.32c-5.02-0.16-10.03-0.31-15.05-0.47c15.99-21.72,33.79-24.58,59.91-9.63
			c-1.71,1.62-3.43,3.25-5.15,4.87C1915.33,1829.24,1901.74,1828.28,1888.28,1828.32z"/>
		<path class="st21" d="M1823.48,2395.81c5.09-24.32,27.37-46.52,44.87-44.7C1856.58,2369.22,1844.96,2387.47,1823.48,2395.81z"/>
		<path class="st21" d="M1908.07,2151.77c-8.77,8.73-3.3,19.94-5.22,29.87c-12.41-2.13-19.39-9.24-10.65-20.18
			c8.47-10.6-5.33-30.69,15.89-34.56C1908.08,2135.18,1908.08,2143.48,1908.07,2151.77z"/>
		<path class="st14" d="M1251.08,1878.08c21.76,7.1,43.51,14.18,65.24,21.38c0.23,0.08,0.22,1.59-0.05,2.28
			c-0.28,0.73-1.01,1.28-1.55,1.91c-22.45-3.37-43.62-10.56-63.58-21.35C1251.14,1880.89,1251.11,1879.48,1251.08,1878.08z"/>
		<path class="st21" d="M1898.39,2201.62c0.02,6.63,0.04,13.26,0.06,19.89c-0.18,6.63-0.37,13.25-0.56,19.88
			C1878.05,2230.23,1878.15,2221.82,1898.39,2201.62z"/>
		<path class="st21" d="M1803.37,2306.41c9.13-8.35,11.12,0.95,12.7,6.11c3.13,10.19-4.49,12.31-12.26,13.52
			C1803.67,2319.5,1803.52,2312.96,1803.37,2306.41z"/>
		<path class="st11" d="M2230.92,1842.44c12.81-6.18,18.01-0.62,27.37,8.03C2245.31,1851.34,2239.22,1848.16,2230.92,1842.44z"/>
		<path class="st11" d="M1941.3,2044.92c-3.7-7.34-9.06-13.2-1.94-19.83c1.02-0.95,5.36-0.42,6.1,0.75
			C1949.29,2031.83,1948.57,2037.72,1941.3,2044.92z"/>
		<path class="st26" d="M2027.84,1323.03c-0.52,21.16-4.6,38.72-24.36,41.06c-18.37,2.17-26.14-13.69-31.24-29.27
			c-0.26-0.78-0.3-1.64-0.58-2.41c-6.59-18.11-6.71-35.7,6.24-51.1c5.81-6.91,15.02-8.95,22.52-3.82
			C2017.36,1289.1,2030.04,1303.85,2027.84,1323.03z"/>
		<path class="st27" d="M1410.5,1449.77c1.06,47.85-12.33,82.77-33.06,115.29c-49.82,78.19-125.4,53.21-165.48,5.37
			c-57.84-69.05-61-188.95-10.53-264.53c37.52-56.19,85.07-63.98,137.8-22.56C1385.09,1319.35,1410.53,1381.8,1410.5,1449.77z"/>
		<path class="st14" d="M1827.83,1563.8c-7.56-0.41-13.79-7.05-10.57-12.45c6.34-10.62,4.17-19.96,2.13-30.38
			c-0.82-4.19,4.29-10.01,6.68-7.94c9.25,7.99,14.78,19.3,16.56,31.19c1.21,8.09-2.31,16.31-11.76,19.4
			C1830.12,1563.87,1829.24,1563.74,1827.83,1563.8z"/>
		<path class="st14" d="M1813.21,1578.16c-0.23,4.34-0.76,9.03-6.1,8.45c-5.49-0.6-7.72-5.41-8.02-10.5
			c-0.23-3.83-0.59-9.09,4.83-9.32C1811.31,1566.5,1812.52,1572.51,1813.21,1578.16z"/>
		<path class="st23" d="M1924.31,1984.19c-5.74,15.61-6.72,34.79-20.53,32.99c-13.58-1.76-23.07-17.58-20.68-35.09
			c0.89-6.52,0.11-13.31,1.35-19.74c0.97-5.01,4.6-9.4,10.64-7.58c6.72,2.03,5.32,7.1,3.21,12.06c-2.97,6.98-12.32,13.19-3.51,21.81
			C1903.81,1997.47,1912.58,1988.35,1924.31,1984.19z"/>
		<path class="st21" d="M1888.28,1828.32c12.39-8.17,26.36-4.33,39.71-5.23C1915.98,1834.19,1902.96,1837.57,1888.28,1828.32z"/>
		<path class="st26" d="M1351.39,1374.58c0.04,25.87-12.76,49.64-28.56,48.69c-23.33-1.41-32.4-19.22-38.22-39.45
			c-4.26-14.78-4.27-28.98-0.18-43.88c4-14.55,9.97-27.98,26.08-28.99c15.23-0.96,25.18,10.26,32.71,22.94
			C1350.72,1346.52,1351.43,1360.45,1351.39,1374.58z"/>
	</g>
</g>
</svg>
